<svg xmlns="http://www.w3.org/2000/svg" viewBox="0 0 920 320" font-family="-apple-system,Segoe UI,Helvetica,Arial,sans-serif">
  <rect width="920" height="320" rx="16" fill="#0d1117"/>
  <text x="40" y="56" fill="#ffffff" font-size="26" font-weight="700">sageattn3 · Windows cp313 · Blackwell FP4 Attention</text>
  <text x="40" y="86" fill="#8b949e" font-size="15">MiniMax-H3 Director v3 workflows · RTX 5080 (sm120) · torch 2.13 +cu130</text>

  <!-- stat cards -->
  <g>
    <rect x="40" y="120" width="250" height="110" rx="12" fill="#161b22" stroke="#30363d"/>
    <text x="165" y="172" fill="#58a6ff" font-size="36" font-weight="700" text-anchor="middle">16.7</text>
    <text x="165" y="202" fill="#8b949e" font-size="15" text-anchor="middle">TFLOP/s</text>

    <rect x="310" y="120" width="250" height="110" rx="12" fill="#161b22" stroke="#30363d"/>
    <text x="435" y="172" fill="#3fb950" font-size="36" font-weight="700" text-anchor="middle">1.0000</text>
    <text x="435" y="202" fill="#8b949e" font-size="15" text-anchor="middle">cosine vs standard</text>

    <rect x="580" y="120" width="300" height="110" rx="12" fill="#161b22" stroke="#30363d"/>
    <text x="730" y="172" fill="#d29922" font-size="36" font-weight="700" text-anchor="middle">0.52 ms</text>
    <text x="730" y="202" fill="#8b949e" font-size="15" text-anchor="middle">per call (B=2,H=16,N=1024)</text>
  </g>

  <!-- chain -->
  <text x="40" y="272" fill="#8b949e" font-size="14">v3 chain:</text>
  <rect x="108" y="252" width="120" height="30" rx="6" fill="#21262d" stroke="#30363d"/>
  <text x="168" y="272" fill="#c9d1d9" font-size="13" text-anchor="middle">UNETLoader</text>
  <text x="238" y="272" fill="#8b949e" font-size="18" text-anchor="middle">→</text>
  <rect x="256" y="252" width="220" height="30" rx="6" fill="#1f6feb" stroke="#388bfd"/>
  <text x="366" y="272" fill="#ffffff" font-size="13" text-anchor="middle">PathchSageAttentionKJ</text>
  <text x="486" y="272" fill="#8b949e" font-size="18" text-anchor="middle">→</text>
  <rect x="504" y="252" width="190" height="30" rx="6" fill="#21262d" stroke="#30363d"/>
  <text x="599" y="272" fill="#c9d1d9" font-size="13" text-anchor="middle">MiniMaxH3Director</text>
  <text x="708" y="272" fill="#3fb950" font-size="13" text-anchor="middle">sage_attn3 ✔</text>
</svg>
